# xmcd
#
# Track frame offsets:
#	150
#	46873
#	72322
#	107294
#	139129
#	166374
#	205572
#	252837
#	282376
#
# Disc length: 4091 seconds
# Revision: 0
# Processed by: cddbd v1.5.2PL0 Copyright (c) Steve Scherf et al.
# Submitted via: dBpowerAMP V12.0
#
DISCID=790ff909
DTITLE=Paolo Giordano - Der menschliche Koerper CD4
DYEAR=1900
DGENRE=
TTITLE0=401
TTITLE1=402
TTITLE2=403
TTITLE3=404
TTITLE4=405
TTITLE5=406
TTITLE6=407
TTITLE7=408
TTITLE8=409
EXTD=
EXTT0=
EXTT1=
EXTT2=
EXTT3=
EXTT4=
EXTT5=
EXTT6=
EXTT7=
EXTT8=
PLAYORDER=
